<?xml version="1.0" ?><svg width="64px" height="64px" viewBox="0 0 64 64" xmlns="http://www.w3.org/2000/svg"><defs><style>.cls-1{fill:#9dcbf4;}.cls-2{fill:#389ad6;}.cls-3{fill:none;stroke:#2a5081;stroke-linecap:round;stroke-linejoin:round;stroke-width:2px;}.cls-4{fill:#2a5081;}</style></defs><title/><g data-name="Layer 5" id="Layer_5"><path class="cls-1" d="M34.92,14.27s.58,13.33,4.33,14.92.92,15.58,3,16.33-5.17,4.25-5.17,4.25S33.67,46.1,34.5,45s2.5-1.33,3-4.17a26.56,26.56,0,0,0,.75-5.42c0-1.92-3.83-3.5-3.83-3.5Z"/><path class="cls-1" d="M17.5,19.6s6.17-3.5,5,6.42,4.42,19,15.17,19.17,3.73,5.08-1.05,5.17S25.75,55,17.34,44.27,14.39,23.94,17.5,19.6Z"/><path class="cls-2" d="M33,15.68l-1.48,2.5a2.17,2.17,0,0,0-.3,1.11V32.72a2.17,2.17,0,0,0,2.94,2h0a2.17,2.17,0,0,1,2.91,2.38c-.58,3.35-2.19,8.19-6.66,10.76a.73.73,0,0,0,.6,1.33c3-.94,6.23-3.18,8.3-8.19,4.14-10,.73-10.5,0-10.51a.66.66,0,0,0-.22,0l-3.84,1.32a.73.73,0,0,1-1-.7l.07-15.12A.74.74,0,0,0,33,15.68Z"/><path class="cls-2" d="M16.09,21.19s2.5,3.33,1.33,7.08,1.25,14,.08,15.33S11.17,36.85,12,30.19,16.09,21.19,16.09,21.19Z"/><path class="cls-3" d="M34.34,13.71h0c.38.06.77.13,1.15.22l.1,0,.77.2s0,0,0,0"/><path class="cls-3" d="M49.25,26.73A18.82,18.82,0,0,1,24.81,50h0a18.85,18.85,0,0,1,.53-35.53,18.57,18.57,0,0,1,2.86-.71"/><path class="cls-3" d="M24.81,50h0a18.83,18.83,0,0,1-4.64-32.84"/><path class="cls-3" d="M40.62,29.9A17,17,0,0,1,41,33.28a16.69,16.69,0,0,1-9.31,15"/><path class="cls-3" d="M40.62,29.9l-6.28,2.31V13.71h0l1.15.22.1,0c12.7,2.7,16.49,11.74,16.49,11.74l-2.84,1"/><circle class="cls-4" cx="31.34" cy="13.6" r="1"/><path class="cls-3" d="M17,44.58c.4-.6.62-2.36.38-6.39-.66-11.17,3.25,3.33,4.42,2.08s1.75-5.42,3.33-2.33,1.42,4.75,5.75,5.58-1.41-4.67-.16-10.25"/><path class="cls-3" d="M15.12,22.65a3.19,3.19,0,0,1,1.39-.38c2.66-.08,6.25,1.33,7.33-.75s6.75-6.17,6.92-4.08"/></g></svg>