<?xml version="1.0" encoding="UTF-8"?>
<svg id="OBJECTS" xmlns="http://www.w3.org/2000/svg" viewBox="0 0 424.61 418.02">
  <defs>
    <style>
      .cls-1 {
        fill: #63616b;
      }

      .cls-2 {
        fill: #ffb000;
      }

      .cls-3 {
        fill: #50a0ff;
      }
    </style>
  </defs>
  <path class="cls-1" d="M269.87,306.73h-113.45C72.57,306.73,1.93,240.71,.04,156.88-1.9,70.71,67.63,0,153.36,0h210.7c23.16,0,41.93,18.77,41.93,41.93h0c0,23.16-18.77,41.93-41.93,41.93H155.52c-41.35,0-74.73,33.87-71.44,75.09,2.85,35.73,32.84,63.93,69.29,63.93h116.5c.1,0,.18,.08,.18,.19v83.48c0,.1-.08,.19-.18,.19Z"/>
  <path class="cls-1" d="M268.19,418.02H60.55c-23.16,0-41.93-18.77-41.93-41.93h0c0-23.16,18.77-41.93,41.93-41.93h208.54c41.35,0,74.73-33.87,71.44-75.09-2.85-35.73-32.84-63.93-69.29-63.93h-116.5c-.1,0-.18-.08-.18-.18V111.48c0-.1,.08-.18,.18-.18h116.5c85.74,0,155.27,70.72,153.32,156.88-1.89,83.83-72.53,149.84-156.38,149.84Z"/>
  <circle class="cls-2" cx="270.05" cy="264.8" r="52.41" transform="translate(-50.01 466.31) rotate(-76.63)"/>
  <circle class="cls-3" cx="154.56" cy="153.22" r="52.41"/>
</svg>